<svg width="1442" height="812" viewBox="0 0 1442 812" fill="none" xmlns="http://www.w3.org/2000/svg">
<g clip-path="url(#clip0_61385_181)">
<rect width="1442" height="812" fill="#202024"/>
<path d="M94.9633 71.5215L92.2243 71.0597C92.1404 71.0597 92.0564 71.0597 92.0564 71.1567L90.8968 72.8793C90.8307 72.9916 90.8009 73.1274 90.8129 73.2626C90.8129 73.3596 90.7289 73.5535 90.6489 73.4565L89.7333 73.1702C89.5693 73.1702 89.4014 73.1702 89.3334 73.3596L85.5988 78.9014C85.5149 78.9984 85.4309 78.9984 85.267 78.9984L83.8555 78.2318C83.7956 78.1883 83.7263 78.1653 83.6556 78.1653C83.5849 78.1653 83.5156 78.1883 83.4557 78.2318L82.672 78.8137C82.6124 78.8582 82.543 78.8819 82.472 78.8819C82.4011 78.8819 82.3317 78.8582 82.2721 78.8137L81.9402 78.6243C81.8862 78.5961 81.8277 78.5812 81.7684 78.5805C81.7091 78.5798 81.6504 78.5933 81.5958 78.6203C81.5413 78.6472 81.4923 78.6869 81.4517 78.7369C81.4112 78.7869 81.3801 78.846 81.3605 78.9106L81.1086 80.2499C81.0786 80.3921 81.0867 80.5415 81.1317 80.6783C81.1766 80.8151 81.2564 80.9331 81.3605 81.0165L82.0242 81.4784L83.7635 82.7253L84.5952 83.2979C84.712 83.3771 84.8477 83.4109 84.9823 83.3942C85.1169 83.3776 85.2433 83.3115 85.3429 83.2056L86.7504 81.7647C86.8716 81.685 87.0118 81.6526 87.1503 81.6723L87.5501 81.9587C87.714 82.0556 87.882 82.0556 87.95 81.8617L88.6937 81.0951C88.7448 81.0356 88.81 80.9947 88.881 80.9775C88.9521 80.9602 89.0259 80.9674 89.0935 80.9981L90.1731 81.5754C90.2564 81.6069 90.345 81.6145 90.4314 81.5976C90.5178 81.5807 90.5993 81.5398 90.6689 81.4784L91.1687 80.7117L94.9033 75.1699C95.0672 74.8789 94.9833 74.4956 94.6514 74.4956L93.8677 74.2924C93.6998 74.2924 93.6198 74.0061 93.6998 73.8306L95.0273 72.011C95.2112 71.8171 95.1272 71.5215 94.9633 71.5215Z" fill="white"/>
<path d="M82.516 82.7438C82.432 82.6468 82.3521 82.7438 82.3521 82.8408L82.7519 84.0831V84.374L82.42 85.9996C82.4143 86.0523 82.4189 86.1057 82.4335 86.1561C82.448 86.2064 82.4721 86.2524 82.504 86.2906L83.4996 87.1495C83.5455 87.196 83.6045 87.2216 83.6655 87.2216C83.7266 87.2216 83.7856 87.196 83.8315 87.1495L84.9111 86.0966C84.9434 86.0598 84.9824 86.032 85.0254 86.0152C85.0683 85.9984 85.114 85.9931 85.159 85.9996L86.3225 85.8103C86.4025 85.8103 86.4025 85.7133 86.3225 85.6163L82.516 82.7438Z" fill="white"/>
<path d="M82.1841 86.863C82.17 86.8402 82.1514 86.8215 82.1299 86.8086C82.1083 86.7958 82.0844 86.789 82.0601 86.789C82.0358 86.789 82.0119 86.7958 81.9903 86.8086C81.9688 86.8215 81.9502 86.8402 81.9361 86.863L81.1045 87.3249C81.0936 87.3249 81.0829 87.3274 81.0729 87.3323C81.0629 87.3372 81.0539 87.3445 81.0465 87.3535C81.039 87.3626 81.0332 87.3733 81.0294 87.3851C81.0256 87.3968 81.024 87.4093 81.0245 87.4218L79.1972 92.5942H79.2812L79.681 92.4049V92.4973L78.3535 94.9911C78.3535 95.0881 78.3535 95.0881 78.4335 95.0881L83.0797 89.6247C83.1637 89.6247 83.1637 89.5278 83.1637 89.4308L83.2476 87.9945C83.2476 87.8975 83.2477 87.8052 83.1637 87.8052L82.1841 86.863Z" fill="white"/>
<path d="M77.4977 127L75.6584 123.024L78.8572 120.461L79.473 121.454L78.4614 122.243C78.2886 122.387 78.1083 122.518 77.9216 122.636C77.7528 122.747 77.5763 122.841 77.3938 122.918L80.8325 123.878L80.5966 125.005L77.1499 124.04C77.2404 124.147 77.3245 124.261 77.4018 124.381C77.4778 124.497 77.5497 124.622 77.6217 124.756L77.8416 125.217L78.4254 126.455L77.4977 127Z" fill="#FFCD1E"/>
<path d="M62.4316 111.806C62.9794 111.081 63.8511 111.007 64.6308 111.806L66.2302 113.427L63.0314 117.644L61.7599 116.318C60.9282 115.478 60.6243 114.596 61.2081 113.82C61.3339 113.637 61.5032 113.502 61.6951 113.429C61.887 113.357 62.093 113.352 62.2877 113.413C62.1442 113.169 62.0799 112.873 62.1063 112.579C62.1326 112.285 62.2478 112.012 62.4316 111.806ZM63.5752 115.325L62.9274 114.674C62.5276 114.263 62.1837 114.148 61.9758 114.425C61.7679 114.702 61.9118 115.067 62.3237 115.478L62.9674 116.129L63.5752 115.325ZM63.0554 112.591C62.7715 112.97 62.9235 113.432 63.3713 113.884L64.107 114.623L64.9427 113.519L64.207 112.781C63.7591 112.328 63.3433 112.208 63.0554 112.591Z" fill="white"/>
<path d="M55.2263 107.955L57.4335 106.015C58.4491 105.119 59.6127 105.137 60.3604 106.269C61.1081 107.4 60.8122 108.703 59.7966 109.594L57.5894 111.534L57.0336 110.693L59.3288 108.67C59.4527 108.583 59.5593 108.467 59.6419 108.329C59.7244 108.192 59.781 108.035 59.808 107.871C59.8349 107.706 59.8316 107.537 59.7983 107.374C59.765 107.211 59.7023 107.058 59.6145 106.924C59.5267 106.791 59.4156 106.68 59.2884 106.6C59.1612 106.519 59.0208 106.471 58.8762 106.457C58.7317 106.443 58.5862 106.464 58.4493 106.519C58.3123 106.574 58.1869 106.662 58.0812 106.777L55.7821 108.795L55.2263 107.955Z" fill="white"/>
<path d="M57.5016 101.429L53.2152 104.038L52.7874 103.115L57.0817 100.491L57.5016 101.429Z" fill="white"/>
<path d="M53.9148 94.2845L54.7864 93.9382L55.7221 97.0647L51.1358 98.912L50.8359 97.9098L54.5465 96.432L53.9148 94.2845Z" fill="white"/>
<path d="M51.0839 86.249C52.4114 86.0366 53.607 86.9187 53.8269 88.7613L54.0468 90.6086L49.2486 91.3706L49.0327 89.5233C48.8088 87.6299 49.7604 86.4568 51.0839 86.249ZM51.2079 87.2974C51.0134 87.3175 50.8246 87.3834 50.653 87.491C50.4814 87.5985 50.3306 87.7455 50.21 87.9229C50.0894 88.1002 50.0015 88.3042 49.9517 88.5223C49.9019 88.7403 49.8912 88.9678 49.9204 89.1908L50.0323 90.1606L53.0072 89.6988L52.8912 88.7336C52.8676 88.5099 52.8048 88.2941 52.7066 88.0992C52.6085 87.9044 52.4771 87.7347 52.3204 87.6003C52.1637 87.466 51.9849 87.3699 51.7951 87.3178C51.6052 87.2657 51.4081 87.2588 51.2159 87.2974H51.2079Z" fill="white"/>
<path d="M49.7004 72.445L50.6081 72.6529L50.3602 74.0845L54.2107 74.9712L54.0308 76.0103L50.1803 75.1236L49.9323 76.5506L49.0287 76.3428L49.7004 72.445Z" fill="white"/>
<path d="M52.3474 63.9524L56.8177 66.1183L56.4618 67.0974L54.6505 66.2199L53.8508 68.4182L55.6621 69.2956L55.3062 70.2701L50.8359 68.1041L51.1918 67.1251L52.9991 68.0025L53.7988 65.8043L51.9915 64.9268L52.3474 63.9524Z" fill="white"/>
<path d="M55.6501 59.5141L56.5098 60.1883L57.4734 58.5443L58.2371 59.14L57.2735 60.7841L58.1331 61.4584L59.2927 59.4864L60.0564 60.0821L58.381 62.9316L54.3826 59.7912L56.0539 56.9417L56.8176 57.5421L55.6501 59.5141Z" fill="white"/>
<path d="M65.3146 53.6351L62.3478 49.2062L64.7069 47.1003L65.2707 47.9408L63.6393 49.4002L64.279 50.3516L65.6385 49.1323L66.2063 49.9775L64.8388 51.2013L66.0384 52.9932L65.3146 53.6351Z" fill="white"/>
<path d="M71.3922 42.7037L72.6357 45.5624C73.2075 46.8786 72.9796 48.1948 71.88 48.8367C70.7805 49.4786 69.7249 48.9014 69.1531 47.5806L67.9095 44.7358L68.7292 44.2739L70.0247 47.2481C70.0867 47.3885 70.172 47.5134 70.2758 47.6157C70.3795 47.718 70.4997 47.7957 70.6295 47.8444C70.7593 47.8931 70.896 47.9118 71.0321 47.8994C71.1681 47.887 71.3007 47.8438 71.4222 47.7722C71.5438 47.7007 71.6519 47.6021 71.7405 47.4823C71.8291 47.3625 71.8964 47.2236 71.9386 47.0737C71.9807 46.9239 71.9969 46.7659 71.9861 46.6088C71.9754 46.4517 71.938 46.2986 71.876 46.1582L70.5805 43.1794L71.3922 42.7037Z" fill="white"/>
<path d="M78.2737 40.09L78.5176 41.1152L77.318 41.5031L78.3617 45.8766L77.474 46.1537L76.4344 41.7848L75.2348 42.1728L74.9869 41.1429L78.2737 40.09Z" fill="white"/>
<path d="M85.9189 39L86.1188 42.1912C86.2108 43.6598 85.559 44.7728 84.3315 44.8744C83.1039 44.976 82.3322 43.983 82.2323 42.5098L82.0323 39.3233L82.948 39.2448L83.1519 42.5699C83.145 42.7394 83.1692 42.9087 83.2231 43.0666C83.2769 43.2245 83.3592 43.3674 83.4643 43.4859C83.5695 43.6044 83.6952 43.6959 83.8332 43.7542C83.9712 43.8125 84.1183 43.8363 84.2649 43.8242C84.4114 43.812 84.5541 43.7641 84.6834 43.6836C84.8128 43.6031 84.9259 43.4919 85.0153 43.3572C85.1047 43.2226 85.1684 43.0675 85.2022 42.9024C85.2359 42.7372 85.239 42.5656 85.2111 42.399L85.0032 39.0739L85.9189 39Z" fill="white"/>
<path d="M91.8684 45.0826L91.0008 43.0691L90.453 42.9906L90.2491 44.8379L89.3374 44.6993L89.9572 39.1575L91.6645 39.4115C92.908 39.5962 93.3958 40.4598 93.2639 41.5359C93.2255 41.9279 93.0793 42.2955 92.8469 42.5847C92.6145 42.8739 92.3081 43.0695 91.9724 43.143L92.964 45.2535L91.8684 45.0826ZM90.5729 41.933L91.4846 42.0669C91.581 42.0912 91.6807 42.0928 91.7777 42.0719C91.8747 42.0509 91.9671 42.0078 92.0495 41.9449C92.1318 41.8821 92.2024 41.8009 92.2572 41.706C92.3119 41.6112 92.3497 41.5046 92.3682 41.3927C92.3807 41.2769 92.3717 41.1594 92.3418 41.0479C92.312 40.9365 92.2619 40.8337 92.195 40.7463C92.128 40.6589 92.0457 40.589 91.9536 40.5412C91.8614 40.4934 91.7615 40.4688 91.6605 40.469L90.7489 40.3351L90.5729 41.933Z" fill="white"/>
<path d="M97.9182 42.0757L97.5943 43.2164L99.2257 43.8399L98.9378 44.8512L97.3064 44.2278L96.9826 45.3685L98.9418 46.1166L98.6659 47.128L95.839 46.0474L97.3544 40.7318L100.185 41.8078L99.8974 42.8239L97.9182 42.0757Z" fill="white"/>
<path d="M110.781 47.4054L111.045 51.9035L107.203 52.7163L106.995 51.511L108.194 51.2708C108.414 51.2246 108.626 51.1877 108.826 51.1692C109.019 51.1507 109.213 51.1507 109.406 51.1692L106.607 48.6569L107.223 47.7333L110.022 50.2456C109.976 50.1057 109.94 49.9621 109.914 49.8161C109.883 49.6641 109.862 49.5097 109.85 49.3543C109.85 49.2019 109.818 49.0264 109.806 48.8416L109.714 47.4562L110.781 47.4054Z" fill="#FFCD1E"/>
<path d="M117.299 67.7714L118.307 65.8502L118.075 65.2729L116.611 66.058L116.211 65.0975L120.61 62.7422L121.337 64.5433C121.865 65.8548 121.493 66.7923 120.646 67.2495C120.338 67.4213 119.99 67.4745 119.654 67.4013C119.318 67.3282 119.011 67.1326 118.778 66.8431L117.763 68.9398L117.299 67.7714ZM118.898 64.825L119.298 65.7856C119.332 65.893 119.384 65.9916 119.451 66.0754C119.518 66.1592 119.6 66.2266 119.69 66.2735C119.78 66.3204 119.878 66.346 119.976 66.3487C120.075 66.3513 120.174 66.331 120.266 66.2889C120.356 66.2387 120.436 66.1668 120.5 66.0782C120.565 65.9896 120.612 65.8863 120.639 65.775C120.666 65.6636 120.673 65.5469 120.658 65.4325C120.643 65.3181 120.608 65.2086 120.554 65.1113L120.154 64.1507L118.898 64.825Z" fill="white"/>
<path d="M122.117 76.7033C121.63 76.8265 121.123 76.7806 120.659 76.5715C120.195 76.3623 119.795 75.9993 119.51 75.528C119.224 75.0568 119.065 74.4984 119.054 73.9233C119.043 73.3482 119.179 72.7821 119.446 72.2963C119.712 71.8105 120.098 71.4267 120.553 71.1933C121.008 70.9599 121.513 70.8874 122.004 70.9848C122.495 71.0822 122.95 71.3453 123.311 71.7408C123.673 72.1363 123.925 72.6465 124.036 73.2073C124.183 73.9648 124.063 74.7587 123.703 75.4142C123.343 76.0698 122.773 76.5335 122.117 76.7033V76.7033ZM121.913 75.6688C122.22 75.584 122.498 75.3962 122.713 75.1291C122.928 74.8619 123.069 74.5273 123.12 74.1675C123.17 73.8076 123.127 73.4386 122.997 73.1068C122.866 72.775 122.653 72.4953 122.385 72.303C122.117 72.1106 121.805 72.0142 121.49 72.0259C121.174 72.0375 120.869 72.1567 120.612 72.3684C120.355 72.5802 120.158 72.875 120.046 73.2157C119.934 73.5565 119.911 73.9279 119.982 74.2834C120.028 74.5222 120.115 74.7482 120.237 74.948C120.359 75.1478 120.515 75.3175 120.695 75.4473C120.874 75.577 121.075 75.6643 121.284 75.7039C121.493 75.7435 121.707 75.7347 121.913 75.6781V75.6688Z" fill="white"/>
<path d="M121.361 84.7804L120.529 85.2006C120.15 84.7053 119.934 84.0703 119.922 83.4088C119.916 83.0237 119.977 82.6411 120.1 82.283C120.222 81.9249 120.405 81.5982 120.637 81.3216C120.869 81.045 121.146 80.8239 121.452 80.6709C121.758 80.5179 122.087 80.4361 122.421 80.43C122.754 80.4239 123.085 80.4938 123.395 80.6356C123.705 80.7773 123.988 80.9883 124.228 81.2563C124.467 81.5243 124.659 81.8442 124.791 82.1977C124.924 82.5511 124.995 82.9313 125 83.3164C125.008 83.9765 124.813 84.6185 124.448 85.1267L123.604 84.7388C123.914 84.367 124.083 83.869 124.076 83.3533C124.06 83.0539 123.982 82.7634 123.847 82.507C123.713 82.2505 123.526 82.0357 123.303 81.8812C123.081 81.7267 122.829 81.6371 122.57 81.6202C122.311 81.6033 122.052 81.6595 121.815 81.7841C121.579 81.9087 121.373 82.0978 121.214 82.3352C121.055 82.5725 120.949 82.8509 120.904 83.1464C120.859 83.4419 120.878 83.7454 120.957 84.0309C121.037 84.3164 121.176 84.5752 121.361 84.785V84.7804Z" fill="white"/>
<path d="M118.982 92.9916L119.21 91.6754L121.641 90.0913L119.562 89.6295L119.742 88.5904L124.496 89.6757L124.316 90.7148L122.349 90.253L123.988 92.636L123.76 93.9475L121.889 91.0935L118.982 92.9916Z" fill="white"/>
<path d="M121.401 98.7689L120.437 98.3071L119.785 100.154L118.934 99.7526L119.582 97.9053L118.622 97.4435L117.822 99.6464L116.967 99.2446L118.09 96.058L122.58 98.1732L121.453 101.36L120.601 100.958L121.401 98.7689Z" fill="white"/>
<path d="M117.858 108.596L117.099 108.005L117.783 106.782L114.484 104.325L114.98 103.438L118.278 105.895L118.966 104.671L119.742 105.248L117.858 108.596Z" fill="white"/>
<path d="M110.445 112.476C109.817 111.783 109.778 110.679 110.661 109.617C110.908 109.306 111.209 109.058 111.543 108.888C111.878 108.718 112.239 108.629 112.604 108.629L112.868 109.659C112.581 109.649 112.296 109.707 112.029 109.83C111.762 109.952 111.52 110.136 111.317 110.37C110.877 110.901 110.793 111.395 111.037 111.668C111.281 111.94 111.645 111.788 112.149 111.34C113.248 110.365 113.944 110.388 114.472 110.975C115 111.561 115.115 112.73 114.284 113.746C113.872 114.258 113.317 114.585 112.716 114.669L112.413 113.714C112.869 113.647 113.292 113.403 113.612 113.021C113.952 112.614 114.148 112.148 113.868 111.834C113.588 111.52 113.348 111.705 112.78 112.189C111.945 112.887 111.193 113.307 110.445 112.476Z" fill="white"/>
<path d="M108.662 117.824L108.062 116.844L106.659 117.99L106.127 117.122L107.53 115.976L106.931 114.997L105.243 116.383L104.712 115.51L107.147 113.524L109.946 118.091L107.51 120.082L106.979 119.209L108.662 117.824Z" fill="white"/>
<path d="M99.6854 119.675L101.545 118.719L101.497 117.579L102.44 117.117L102.588 123.171L101.829 123.559L98.042 119.371L98.9816 118.909L99.6854 119.675ZM100.381 120.484L101.693 121.998L101.597 119.86L100.381 120.484Z" fill="white"/>
<path d="M93.9315 126.377L93.7156 125.338L94.9431 125L94.0355 120.59L94.9271 120.345L95.8348 124.756L97.0623 124.419L97.2782 125.453L93.9315 126.377Z" fill="white"/>
<path d="M279 244.508V567.492L500 729L721 567.492V244.508L500 83L279 244.508Z" fill="url(#paint0_linear_61385_181)"/>
<path d="M721 244.508V567.492L942 729L1163 567.492V244.508L942 83L721 244.508Z" fill="url(#paint1_linear_61385_181)"/>
<path d="M925 364.511V813.489L712.5 1038L500 813.489V364.511L712.5 140L925 364.511Z" fill="url(#paint2_linear_61385_181)"/>
<path d="M1444 364.511V813.489L1184.5 1038L925 813.489V364.511L1184.5 140L1444 364.511Z" fill="url(#paint3_linear_61385_181)"/>
<path d="M500 364.511V813.489L240.5 1038L-19 813.489V364.511L240.5 140L500 364.511Z" fill="url(#paint4_linear_61385_181)"/>
</g>
<defs>
<linearGradient id="paint0_linear_61385_181" x1="500" y1="714.146" x2="193.334" y2="301.884" gradientUnits="userSpaceOnUse">
<stop stop-color="#8257E5"/>
<stop offset="1" stop-color="#FF008E" stop-opacity="0"/>
</linearGradient>
<linearGradient id="paint1_linear_61385_181" x1="942" y1="714.146" x2="635.334" y2="301.884" gradientUnits="userSpaceOnUse">
<stop stop-color="#8257E5"/>
<stop offset="1" stop-color="#FF008E" stop-opacity="0"/>
</linearGradient>
<linearGradient id="paint2_linear_61385_181" x1="500" y1="339.278" x2="1022.39" y2="511.047" gradientUnits="userSpaceOnUse">
<stop stop-color="#FF008E" stop-opacity="0"/>
<stop offset="1" stop-color="#FFCD1E"/>
</linearGradient>
<linearGradient id="paint3_linear_61385_181" x1="925" y1="339.278" x2="1533.75" y2="583.716" gradientUnits="userSpaceOnUse">
<stop stop-color="#FF008E" stop-opacity="0"/>
<stop offset="1" stop-color="#FFCD1E"/>
</linearGradient>
<linearGradient id="paint4_linear_61385_181" x1="-18.9999" y1="339.278" x2="589.746" y2="583.716" gradientUnits="userSpaceOnUse">
<stop stop-color="#FF008E" stop-opacity="0"/>
<stop offset="1" stop-color="#FFCD1E"/>
</linearGradient>
<clipPath id="clip0_61385_181">
<rect width="1442" height="812" fill="white"/>
</clipPath>
</defs>
</svg>
