<svg width="60" height="60" viewBox="0 0 60 60" fill="none" xmlns="http://www.w3.org/2000/svg">
<path d="M36.0875 32.4325C36.76 32.4325 37.3175 32.765 37.8025 33.4225C38.2825 34.085 38.5375 34.8925 38.5375 35.86C38.5375 36.8225 38.2825 37.6375 37.8025 38.2925C37.32 38.955 36.76 39.2825 36.0875 39.2825C35.3925 39.2825 34.7825 38.955 34.3 38.2925C33.82 37.6375 33.565 36.8225 33.565 35.86C33.565 34.8925 33.82 34.085 34.3 33.4225C34.78 32.7625 35.39 32.4325 36.0875 32.4325ZM44.6875 23.535C46.5525 25.5625 47.5 28.0225 47.5 30.9175C47.5 32.7875 47.285 34.475 46.8525 35.975C46.415 37.4675 45.8675 38.685 45.2175 39.6225C44.5462 40.574 43.7237 41.4092 42.7825 42.095C41.9636 42.7234 41.0691 43.2466 40.12 43.6525C39.2237 44.0047 38.2927 44.2611 37.3425 44.4175C36.5626 44.5615 35.7757 44.6641 34.985 44.725L33.2725 44.76L31.905 44.7975C30.6356 44.8526 29.3644 44.8526 28.095 44.7975L26.7275 44.76L25.015 44.725C24.2243 44.6643 23.4373 44.5616 22.6575 44.4175C21.7065 44.2646 20.7752 44.0081 19.88 43.6525C18.9311 43.2477 18.0374 42.7244 17.22 42.095C16.2775 41.41 15.454 40.5747 14.7825 39.6225C14.13 38.685 13.585 37.4675 13.1475 35.975C12.715 34.475 12.5 32.7875 12.5 30.9175C12.5 28.0225 13.4475 25.56 15.3125 23.535C15.1075 23.4325 15.1 22.4175 15.2925 20.4925C15.4259 18.6624 15.8434 16.8642 16.53 15.1625C18.865 15.41 21.755 16.735 25.2075 19.115C26.3725 18.8175 27.96 18.6575 30 18.6575C32.13 18.6575 33.7275 18.8175 34.795 19.1175C36.3675 18.055 37.87 17.19 39.3075 16.5325C40.7675 15.88 41.82 15.4925 42.48 15.39L43.47 15.165C44.145 16.7875 44.555 18.565 44.71 20.495C44.9 22.4175 44.8925 23.4325 44.6875 23.535ZM30.075 43.085C34.295 43.085 37.46 42.58 39.6275 41.5675C41.765 40.5575 42.8575 38.4725 42.8575 35.3275C42.8575 33.5025 42.175 31.9775 40.8025 30.7575C40.1213 30.1101 39.2587 29.6862 38.33 29.5425C37.3925 29.39 35.9575 29.39 34.03 29.5425C32.1075 29.6975 30.785 29.7675 30.075 29.7675C29.1125 29.7675 28.075 29.7225 26.7775 29.62C25.4775 29.52 24.4575 29.4575 23.72 29.425C22.9133 29.4109 22.1083 29.5017 21.325 29.695C20.5359 29.8636 19.8023 30.2291 19.1925 30.7575C17.89 31.93 17.2175 33.45 17.2175 35.3275C17.2175 38.4725 18.2825 40.5575 20.4175 41.5675C22.5425 42.58 25.7 43.085 29.9225 43.085H30.075ZM23.99 32.4325C24.66 32.4325 25.22 32.765 25.7025 33.4225C26.1825 34.085 26.4375 34.8925 26.4375 35.86C26.4375 36.8225 26.1825 37.6375 25.7025 38.2925C25.2225 38.955 24.66 39.2825 23.99 39.2825C23.2925 39.2825 22.685 38.955 22.2 38.2925C21.72 37.6375 21.465 36.8225 21.465 35.86C21.465 34.8925 21.72 34.085 22.2 33.4225C22.6825 32.7625 23.29 32.4325 23.99 32.4325Z" fill="white"/>
</svg>
