<svg width="60" height="60" viewBox="0 0 60 60" fill="none" xmlns="http://www.w3.org/2000/svg">
<path d="M54.8975 34.2975V52.745H44.2025V35.5325C44.2025 31.2075 42.655 28.2575 38.785 28.2575C35.83 28.2575 34.07 30.2475 33.2975 32.17C33.015 32.8575 32.9425 33.815 32.9425 34.7775V52.745H22.2425C22.2425 52.745 22.3875 23.595 22.2425 20.5725H32.9425V25.1325L32.8725 25.2375H32.9425V25.1325C34.3625 22.945 36.9 19.8175 42.5825 19.8175C49.62 19.8175 54.8975 24.4175 54.8975 34.2975ZM11.0525 5.065C7.395 5.065 5 7.465 5 10.6225C5 13.71 7.325 16.1825 10.9125 16.1825H10.9825C14.715 16.1825 17.0325 13.71 17.0325 10.6225C16.9675 7.465 14.715 5.065 11.0525 5.065ZM5.635 52.745H16.33V20.5725H5.635V52.745Z" fill="white"/>
</svg>
